<?xml version="1.0" encoding="UTF-8"?>
<svg id="Layer_2" data-name="Layer 2" xmlns="http://www.w3.org/2000/svg" viewBox="0 0 138.37 138.27">
  <g id="Layer_1-2" data-name="Layer 1">
    <g>
      <path d="m69.22,138.23c-17.55,0-35.11-.06-52.66.03-5.12.03-9.27-1.76-12.63-5.52-2.49-2.79-3.87-6.07-3.87-9.82C.03,90.82.09,58.7,0,26.59c-.02-6.52,4.58-13.28,11.38-15.4,1.64-.51,3.28-.79,5-.77,4.64.04,9.27-.01,13.91.03,1.17.01,1.67-.35,1.58-1.57-.09-1.11-.02-2.23-.02-3.35.02-3.48,2.58-5.82,6.04-5.5,2.21.21,4.18,2.22,4.3,4.44.09,1.53.22,3.06.21,4.58,0,1.11.44,1.41,1.49,1.4,6.38-.03,12.75-.02,19.13-.02,10.43,0,20.87,0,31.3,0,1.64,0,1.83-.17,1.88-1.85.04-1.2.01-2.4.05-3.6.08-2.27,1.39-4.08,3.4-4.71,2.29-.71,4.19-.07,5.66,1.89.84,1.13,1.38,2.33,1.27,3.79-.07.95-.02,1.9-.01,2.85q0,1.62,1.68,1.62c4.8,0,9.61-.16,14.41.04,8.89.37,15.68,7.5,15.69,15.67.04,32.15,0,64.31.03,96.46,0,6.22-3.02,10.57-8.15,13.68-2.28,1.38-4.79,1.97-7.46,1.97-17.84-.02-35.69,0-53.53-.01Zm-.04-84.91c-19.04,0-38.09,0-57.13,0-1.61,0-1.68.07-1.72,1.65,0,.21,0,.41,0,.62,0,20.36,0,40.72,0,61.08,0,1.94-.04,3.89.01,5.83.07,2.95,2.36,5.2,5.26,5.06,2.86-.14,5.71-.08,8.57-.09,32.83-.01,65.66,0,98.5-.01,2.76,0,4.26-1.1,5.09-3.62.27-.81.26-1.63.26-2.46.1-9.18,0-18.37.15-27.55.23-12.95.04-25.9.08-38.85,0-1.21-.45-1.67-1.58-1.66-.46,0-.91,0-1.37,0-18.71,0-37.43,0-56.14,0Zm-.03-10.84c2.65,0,5.3,0,7.95,0,16.39,0,32.79-.01,49.18.01,1.16,0,1.76-.29,1.82-1.56.24-5.09.31-10.17-.15-15.24-.19-2.06-2.53-4.38-4.34-4.4-5.34-.06-10.68-.01-16.02-.02-.74,0-1.05.32-1.03,1.05.02,1.2-.04,2.4,0,3.6.05,1.15-.17,2.21-.78,3.2-1.1,1.77-3.38,2.85-5.31,2.47-2.51-.5-3.96-1.92-4.36-4.27-.25-1.48-.18-2.98-.13-4.46.05-1.26-.39-1.62-1.64-1.62-8.07.05-16.14.03-24.22.02-8.69,0-17.39.01-26.08-.03-1.08,0-1.47.33-1.45,1.42.03,1.4-.09,2.81-.17,4.21-.09,1.52-.67,2.81-1.98,3.69-1.78,1.19-3.66,1.57-5.61.48-1.9-1.06-3.02-2.65-2.99-4.92.01-1.16-.05-2.32.02-3.47.05-1.01-.29-1.4-1.34-1.39-5.05.04-10.1.03-15.15,0-1.54,0-2.71.65-3.64,1.79-.89,1.09-1.39,2.33-1.39,3.76.01,4.55,0,9.1.02,13.65.01,1.97.1,2.03,2.04,2.03,18.92,0,37.84,0,56.75,0Z"/>
      <path d="m111.92,95.78c-2.77-.03-5.58-2.83-5.54-5.5.05-2.68,2.91-5.37,5.69-5.34,2.62.03,5.18,2.85,5.15,5.69-.03,2.74-2.55,5.19-5.3,5.16Z"/>
      <path d="m69.12,95.77c-2.74-.02-5.24-2.62-5.22-5.43.02-2.75,2.71-5.41,5.45-5.4,2.54.01,5.33,2.89,5.29,5.48-.04,2.77-2.73,5.37-5.52,5.36Z"/>
      <path d="m26.47,95.77c-2.71-.01-5.27-2.62-5.28-5.38-.01-2.78,2.63-5.48,5.34-5.45,2.55.02,5.51,3.06,5.49,5.63-.02,2.52-2.89,5.21-5.55,5.2Z"/>
      <path d="m90.56,84.94c2.71,0,5.24,2.6,5.27,5.41.03,2.89-2.36,5.39-5.18,5.42-2.92.03-5.35-2.51-5.33-5.56.02-2.78,2.49-5.26,5.24-5.27Z"/>
      <path d="m95.86,111.7c-.02,3.01-2.5,5.46-5.47,5.41-2.75-.04-5.09-2.53-5.08-5.4.01-2.87,2.45-5.33,5.29-5.33,2.93,0,5.28,2.36,5.26,5.31Z"/>
      <path d="m53.11,90.53c-.02,2.87-2.49,5.27-5.35,5.22-2.76-.05-5.14-2.52-5.14-5.33,0-2.83,2.6-5.5,5.34-5.48,2.8.02,5.17,2.59,5.15,5.6Z"/>
      <path d="m53.11,111.84c0,2.86-2.37,5.26-5.17,5.27-2.85,0-5.34-2.51-5.37-5.41-.02-2.94,2.47-5.27,5.61-5.23,2.66.03,4.94,2.51,4.93,5.37Z"/>
      <path d="m26.56,106.54c2.82-.02,5.44,2.48,5.45,5.21.01,2.51-2.9,5.35-5.46,5.34-2.71-.02-5.34-2.65-5.35-5.36-.01-2.87,2.36-5.17,5.36-5.18Z"/>
      <path d="m74.56,111.58c.01,2.7-2.76,5.52-5.38,5.49-2.63-.04-5.25-2.67-5.28-5.29-.03-2.82,2.59-5.41,5.43-5.37,2.68.04,5.22,2.55,5.23,5.17Z"/>
      <path d="m85.44,69.09c.07-3.23,2.2-5.31,5.34-5.22,2.93.08,5.02,2.33,4.98,5.37-.04,2.82-2.54,5.17-5.46,5.14-2.63-.03-4.92-2.52-4.86-5.28Z"/>
      <path d="m74.5,69.27c-.02,2.68-2.51,5.1-5.25,5.1-2.75,0-5.32-2.51-5.33-5.21,0-2.73,2.65-5.31,5.41-5.26,2.74.05,5.19,2.59,5.17,5.36Z"/>
      <path d="m117.2,69.13c0,2.69-2.46,5.2-5.15,5.23-2.9.03-5.43-2.47-5.41-5.36.02-2.64,2.67-5.14,5.42-5.1,2.69.03,5.13,2.51,5.14,5.23Z"/>
    </g>
  </g>
</svg>